<svg width="320" height="240" viewBox="0 0 320 240" fill="none" xmlns="http://www.w3.org/2000/svg">
  <rect width="320" height="240" rx="28" fill="#FCE1E4"/>
  <!-- Burger -->
  <path d="M50 120C50 90 70 70 100 70H110C140 70 160 90 160 120H50Z" fill="#F0B04A"/>
  <rect x="52" y="120" width="106" height="14" rx="7" fill="#7A492A"/>
  <rect x="54" y="134" width="102" height="12" rx="6" fill="#7AC657"/>
  <rect x="52" y="146" width="106" height="12" rx="6" fill="#F6D978"/>
  <path d="M60 158H150C150 175 130 190 105 190H105C80 190 60 175 60 158Z" fill="#E49C42"/>
  <!-- Pizza Slice -->
  <path d="M190 80L270 80L230 180Z" fill="#F6D978"/>
  <path d="M185 75L275 75L275 85L185 85Z" fill="#E49C42"/>
  <!-- Pepperoni -->
  <circle cx="230" cy="110" r="8" fill="#E05B5B"/>
  <circle cx="215" cy="135" r="8" fill="#E05B5B"/>
  <circle cx="240" cy="150" r="8" fill="#E05B5B"/>
  <!-- Drink -->
  <rect x="140" y="50" width="40" height="70" rx="4" fill="#E05B5B"/>
  <rect x="135" y="45" width="50" height="8" rx="2" fill="#EAEAEA"/>
  <rect x="157" y="20" width="6" height="30" fill="#EAEAEA"/>
</svg>
